<svg width="25" height="24" viewBox="0 0 25 24" fill="none" xmlns="http://www.w3.org/2000/svg">
<path d="M4.64991 19.0586C3.90314 16.183 3.60756 12.6607 3.5256 10.7486C3.50195 10.1968 3.94772 9.75 4.5 9.75H20.5C21.0523 9.75 21.498 10.1968 21.4744 10.7486C21.3924 12.6607 21.0969 16.183 20.3501 19.0586C20.1501 19.8287 19.5868 20.4292 18.8043 20.5736C17.633 20.7896 15.6135 21 12.5 21C9.38651 21 7.36695 20.7896 6.19568 20.5736C5.41323 20.4292 4.8499 19.8287 4.64991 19.0586Z" stroke="white" stroke-width="1.5" stroke-linecap="round" stroke-linejoin="round"/>
<path d="M7.25 9.75V8C7.25 5.23857 9.48858 3 12.25 3H12.75C15.5114 3 17.75 5.23858 17.75 8V9.75" stroke="white" stroke-width="1.5" stroke-linecap="round" stroke-linejoin="round"/>
<path d="M9.5 14.25V16.5M15.5 14.25V16.5" stroke="white" stroke-width="1.5" stroke-linecap="round" stroke-linejoin="round"/>
</svg>
