<svg width="120" height="24" viewBox="0 0 120 24" fill="none" xmlns="http://www.w3.org/2000/svg">
<path fill-rule="evenodd" clip-rule="evenodd" d="M13.849 8.515L12 5L10.151 8.515C10.0204 8.77186 9.83131 8.99449 9.599 9.165C9.36556 9.33638 9.09543 9.45107 8.81 9.5L5 10.247L7.66 13.428C8.02377 13.8267 8.19542 14.3643 8.13 14.9L7.624 19L11.132 17.3C11.4026 17.1689 11.6993 17.1006 12 17.1C12.2821 17.1009 12.5599 17.1694 12.81 17.3L16.4 18.895L15.894 14.844C15.83 14.3095 16.002 13.7736 16.365 13.376L19 10.247L15.19 9.5C14.9042 9.45122 14.6337 9.33652 14.4 9.165C14.1681 8.99438 13.9793 8.77175 13.849 8.515Z" fill="#FFA500" stroke="#FFA500" stroke-width="1.5" stroke-linecap="round" stroke-linejoin="round"/>
<path fill-rule="evenodd" clip-rule="evenodd" d="M37.849 8.515L36 5L34.151 8.515C34.0204 8.77186 33.8313 8.99449 33.599 9.165C33.3656 9.33638 33.0954 9.45107 32.81 9.5L29 10.247L31.66 13.428C32.0238 13.8267 32.1954 14.3643 32.13 14.9L31.624 19L35.132 17.3C35.4026 17.1689 35.6993 17.1006 36 17.1C36.2821 17.1009 36.5599 17.1694 36.81 17.3L40.4 18.895L39.894 14.844C39.83 14.3095 40.002 13.7736 40.365 13.376L43 10.247L39.19 9.5C38.9042 9.45122 38.6337 9.33652 38.4 9.165C38.1681 8.99438 37.9793 8.77175 37.849 8.515Z" fill="#FFA500" stroke="#FFA500" stroke-width="1.5" stroke-linecap="round" stroke-linejoin="round"/>
<path fill-rule="evenodd" clip-rule="evenodd" d="M61.849 8.515L60 5L58.151 8.515C58.0204 8.77186 57.8313 8.99449 57.599 9.165C57.3656 9.33638 57.0954 9.45107 56.81 9.5L53 10.247L55.66 13.428C56.0238 13.8267 56.1954 14.3643 56.13 14.9L55.624 19L59.132 17.3C59.4026 17.1689 59.6993 17.1006 60 17.1C60.2821 17.1009 60.5599 17.1694 60.81 17.3L64.4 18.895L63.894 14.844C63.83 14.3095 64.002 13.7736 64.365 13.376L67 10.247L63.19 9.5C62.9042 9.45122 62.6337 9.33652 62.4 9.165C62.1681 8.99438 61.9793 8.77175 61.849 8.515Z" fill="#FFA500" stroke="#FFA500" stroke-width="1.5" stroke-linecap="round" stroke-linejoin="round"/>
<path fill-rule="evenodd" clip-rule="evenodd" d="M85.849 8.515L84 5L82.151 8.515C82.0204 8.77186 81.8313 8.99449 81.599 9.165C81.3656 9.33638 81.0954 9.45107 80.81 9.5L77 10.247L79.66 13.428C80.0238 13.8267 80.1954 14.3643 80.13 14.9L79.624 19L83.132 17.3C83.4026 17.1689 83.6993 17.1006 84 17.1C84.2821 17.1009 84.5599 17.1694 84.81 17.3L88.4 18.895L87.894 14.844C87.83 14.3095 88.002 13.7736 88.365 13.376L91 10.247L87.19 9.5C86.9042 9.45122 86.6337 9.33652 86.4 9.165C86.1681 8.99438 85.9793 8.77175 85.849 8.515Z" fill="#FFA500" stroke="#FFA500" stroke-width="1.5" stroke-linecap="round" stroke-linejoin="round"/>
<path fill-rule="evenodd" clip-rule="evenodd" d="M109.849 8.515L108 5L106.151 8.515C106.02 8.77186 105.831 8.99449 105.599 9.165C105.366 9.33638 105.095 9.45107 104.81 9.5L101 10.247L103.66 13.428C104.024 13.8267 104.195 14.3643 104.13 14.9L103.624 19L107.132 17.3C107.403 17.1689 107.699 17.1006 108 17.1C108.282 17.1009 108.56 17.1694 108.81 17.3L112.4 18.895L111.894 14.844C111.83 14.3095 112.002 13.7736 112.365 13.376L115 10.247L111.19 9.5C110.904 9.45122 110.634 9.33652 110.4 9.165C110.168 8.99438 109.979 8.77175 109.849 8.515Z" fill="#FFA500" stroke="#FFA500" stroke-width="1.5" stroke-linecap="round" stroke-linejoin="round"/>
</svg>
