<svg width="44" height="44" viewBox="0 0 44 44" fill="none" xmlns="http://www.w3.org/2000/svg">
<path d="M14.1499 29.0586C13.4031 26.183 13.1076 22.6607 13.0256 20.7486C13.002 20.1968 13.4477 19.75 14 19.75H30C30.5523 19.75 30.998 20.1968 30.9744 20.7486C30.8924 22.6607 30.5969 26.183 29.8501 29.0586C29.6501 29.8287 29.0868 30.4292 28.3043 30.5736C27.133 30.7896 25.1135 31 22 31C18.8865 31 16.8669 30.7896 15.6957 30.5736C14.9132 30.4292 14.3499 29.8287 14.1499 29.0586Z" fill="#F2F3F5"/>
<path d="M14.1499 29.0586C13.4031 26.183 13.1076 22.6607 13.0256 20.7486C13.002 20.1968 13.4477 19.75 14 19.75H30C30.5523 19.75 30.998 20.1968 30.9744 20.7486C30.8924 22.6607 30.5969 26.183 29.8501 29.0586C29.6501 29.8287 29.0868 30.4292 28.3043 30.5736C27.133 30.7896 25.1135 31 22 31C18.8865 31 16.8669 30.7896 15.6957 30.5736C14.9132 30.4292 14.3499 29.8287 14.1499 29.0586Z" stroke="#353949" stroke-width="1.5" stroke-linecap="round" stroke-linejoin="round"/>
<path d="M16.75 19.75V18C16.75 15.2386 18.9886 13 21.75 13H22.25C25.0114 13 27.25 15.2386 27.25 18V19.75" stroke="#353949" stroke-width="1.5" stroke-linecap="round" stroke-linejoin="round"/>
<path d="M19 24.25V26.5M25 24.25V26.5" stroke="#353949" stroke-width="1.5" stroke-linecap="round" stroke-linejoin="round"/>
<rect x="0.5" y="0.5" width="43" height="43" rx="21.5" stroke="#E2E4EB"/>
</svg>
